<svg width="190" height="26" viewBox="0 0 190 26" fill="none" xmlns="http://www.w3.org/2000/svg">
<path d="M0.876 25V0.414998H11.238C12.866 0.414998 14.252 0.700998 15.396 1.273C16.562 1.823 17.453 2.615 18.069 3.649C18.707 4.661 19.026 5.893 19.026 7.345C19.026 8.467 18.718 9.523 18.102 10.513C17.508 11.481 16.551 12.284 15.231 12.922V10.843C16.441 11.305 17.398 11.877 18.102 12.559C18.806 13.241 19.301 14 19.587 14.836C19.873 15.672 20.016 16.552 20.016 17.476C20.016 19.83 19.235 21.678 17.673 23.02C16.133 24.34 13.988 25 11.238 25H0.876ZM5.364 21.04H11.7C12.866 21.04 13.79 20.721 14.472 20.083C15.176 19.423 15.528 18.554 15.528 17.476C15.528 16.398 15.176 15.529 14.472 14.869C13.79 14.209 12.866 13.879 11.7 13.879H5.364V21.04ZM5.364 9.952H11.469C12.393 9.952 13.13 9.688 13.68 9.16C14.23 8.61 14.505 7.906 14.505 7.048C14.505 6.19 14.23 5.508 13.68 5.002C13.13 4.496 12.393 4.243 11.469 4.243H5.364V9.952ZM29.4344 25.396C28.1804 25.396 27.0914 25.187 26.1674 24.769C25.2434 24.351 24.5284 23.757 24.0224 22.987C23.5164 22.195 23.2634 21.282 23.2634 20.248C23.2634 19.258 23.4834 18.378 23.9234 17.608C24.3634 16.816 25.0454 16.156 25.9694 15.628C26.8934 15.1 28.0594 14.726 29.4674 14.506L35.3414 13.549V16.849L30.2924 17.707C29.4344 17.861 28.7964 18.136 28.3784 18.532C27.9604 18.928 27.7514 19.445 27.7514 20.083C27.7514 20.699 27.9824 21.194 28.4444 21.568C28.9284 21.92 29.5224 22.096 30.2264 22.096C31.1284 22.096 31.9204 21.909 32.6024 21.535C33.3064 21.139 33.8454 20.6 34.2194 19.918C34.6154 19.236 34.8134 18.488 34.8134 17.674V13.054C34.8134 12.284 34.5054 11.646 33.8894 11.14C33.2954 10.612 32.5034 10.348 31.5134 10.348C30.5894 10.348 29.7644 10.601 29.0384 11.107C28.3344 11.591 27.8174 12.24 27.4874 13.054L23.9564 11.338C24.3084 10.392 24.8584 9.578 25.6064 8.896C26.3764 8.192 27.2784 7.642 28.3124 7.246C29.3464 6.85 30.4684 6.652 31.6784 6.652C33.1524 6.652 34.4504 6.927 35.5724 7.477C36.6944 8.005 37.5634 8.753 38.1794 9.721C38.8174 10.667 39.1364 11.778 39.1364 13.054V25H35.0444V21.931L35.9684 21.865C35.5064 22.635 34.9564 23.284 34.3184 23.812C33.6804 24.318 32.9544 24.714 32.1404 25C31.3264 25.264 30.4244 25.396 29.4344 25.396ZM50.623 25.396C48.709 25.396 47.037 24.945 45.607 24.043C44.199 23.119 43.231 21.876 42.703 20.314L45.937 18.763C46.399 19.775 47.037 20.567 47.851 21.139C48.687 21.711 49.611 21.997 50.623 21.997C51.415 21.997 52.042 21.821 52.504 21.469C52.966 21.117 53.197 20.655 53.197 20.083C53.197 19.731 53.098 19.445 52.9 19.225C52.724 18.983 52.471 18.785 52.141 18.631C51.833 18.455 51.492 18.312 51.118 18.202L48.181 17.377C46.663 16.937 45.508 16.266 44.716 15.364C43.946 14.462 43.561 13.395 43.561 12.163C43.561 11.063 43.836 10.106 44.386 9.292C44.958 8.456 45.739 7.807 46.729 7.345C47.741 6.883 48.896 6.652 50.194 6.652C51.888 6.652 53.384 7.059 54.682 7.873C55.98 8.687 56.904 9.831 57.454 11.305L54.154 12.856C53.846 12.042 53.329 11.393 52.603 10.909C51.877 10.425 51.063 10.183 50.161 10.183C49.435 10.183 48.863 10.348 48.445 10.678C48.027 11.008 47.818 11.437 47.818 11.965C47.818 12.295 47.906 12.581 48.082 12.823C48.258 13.065 48.5 13.263 48.808 13.417C49.138 13.571 49.512 13.714 49.93 13.846L52.801 14.704C54.275 15.144 55.408 15.804 56.2 16.684C57.014 17.564 57.421 18.642 57.421 19.918C57.421 20.996 57.135 21.953 56.563 22.789C55.991 23.603 55.199 24.241 54.187 24.703C53.175 25.165 51.987 25.396 50.623 25.396ZM61.4032 25V7.048H65.7262V25H61.4032ZM61.4032 5.035V0.414998H65.7262V5.035H61.4032ZM79.0236 25.396C77.2416 25.396 75.6356 24.989 74.2056 24.175C72.7976 23.339 71.6866 22.217 70.8726 20.809C70.0586 19.379 69.6516 17.773 69.6516 15.991C69.6516 14.209 70.0586 12.614 70.8726 11.206C71.6866 9.798 72.7976 8.687 74.2056 7.873C75.6356 7.059 77.2416 6.652 79.0236 6.652C80.2996 6.652 81.4876 6.883 82.5876 7.345C83.6876 7.785 84.6336 8.401 85.4256 9.193C86.2396 9.963 86.8226 10.887 87.1746 11.965L83.3796 13.615C83.0496 12.713 82.4886 11.987 81.6966 11.437C80.9266 10.887 80.0356 10.612 79.0236 10.612C78.0776 10.612 77.2306 10.843 76.4826 11.305C75.7566 11.767 75.1846 12.405 74.7666 13.219C74.3486 14.033 74.1396 14.968 74.1396 16.024C74.1396 17.08 74.3486 18.015 74.7666 18.829C75.1846 19.643 75.7566 20.281 76.4826 20.743C77.2306 21.205 78.0776 21.436 79.0236 21.436C80.0576 21.436 80.9596 21.161 81.7296 20.611C82.4996 20.061 83.0496 19.324 83.3796 18.4L87.1746 20.116C86.8226 21.128 86.2506 22.041 85.4586 22.855C84.6666 23.647 83.7206 24.274 82.6206 24.736C81.5206 25.176 80.3216 25.396 79.0236 25.396Z" fill="#F4890A"/>
<path d="M100.256 25.396C98.6938 25.396 97.2418 25.11 95.8998 24.538C94.5798 23.966 93.4358 23.174 92.4678 22.162C91.5218 21.128 90.8288 19.929 90.3888 18.565L94.1178 16.948C94.7118 18.356 95.5698 19.467 96.6918 20.281C97.8138 21.073 99.0788 21.469 100.487 21.469C101.279 21.469 101.961 21.348 102.533 21.106C103.127 20.842 103.578 20.49 103.886 20.05C104.216 19.61 104.381 19.082 104.381 18.466C104.381 17.74 104.161 17.146 103.721 16.684C103.303 16.2 102.665 15.826 101.807 15.562L97.0878 14.044C95.1738 13.45 93.7328 12.559 92.7648 11.371C91.7968 10.183 91.3128 8.786 91.3128 7.18C91.3128 5.772 91.6538 4.529 92.3358 3.451C93.0398 2.373 94.0078 1.537 95.2398 0.942999C96.4938 0.326999 97.9238 0.018999 99.5298 0.018999C101.004 0.018999 102.357 0.282999 103.589 0.810999C104.821 1.317 105.877 2.032 106.757 2.956C107.659 3.858 108.33 4.925 108.77 6.157L105.074 7.807C104.59 6.575 103.864 5.629 102.896 4.969C101.928 4.287 100.806 3.946 99.5298 3.946C98.7818 3.946 98.1218 4.078 97.5498 4.342C96.9778 4.584 96.5268 4.936 96.1968 5.398C95.8888 5.838 95.7348 6.366 95.7348 6.982C95.7348 7.664 95.9548 8.269 96.3948 8.797C96.8348 9.303 97.5058 9.699 98.4078 9.985L102.929 11.404C104.887 12.042 106.35 12.922 107.318 14.044C108.308 15.166 108.803 16.552 108.803 18.202C108.803 19.61 108.44 20.853 107.714 21.931C106.988 23.009 105.987 23.856 104.711 24.472C103.435 25.088 101.95 25.396 100.256 25.396ZM121.325 25.198C119.301 25.198 117.728 24.648 116.606 23.548C115.506 22.426 114.956 20.853 114.956 18.829V10.909H111.854V7.048H112.184C113.064 7.048 113.746 6.817 114.23 6.355C114.714 5.893 114.956 5.222 114.956 4.342V2.956H119.279V7.048H123.404V10.909H119.279V18.598C119.279 19.192 119.378 19.698 119.576 20.116C119.796 20.534 120.126 20.853 120.566 21.073C121.028 21.293 121.611 21.403 122.315 21.403C122.469 21.403 122.645 21.392 122.843 21.37C123.063 21.348 123.272 21.326 123.47 21.304V25C123.162 25.044 122.81 25.088 122.414 25.132C122.018 25.176 121.655 25.198 121.325 25.198ZM136.05 25.396C134.29 25.396 132.684 24.989 131.232 24.175C129.802 23.361 128.658 22.25 127.8 20.842C126.964 19.434 126.546 17.828 126.546 16.024C126.546 14.22 126.964 12.614 127.8 11.206C128.658 9.798 129.802 8.687 131.232 7.873C132.662 7.059 134.268 6.652 136.05 6.652C137.81 6.652 139.405 7.059 140.835 7.873C142.265 8.687 143.398 9.798 144.234 11.206C145.092 12.592 145.521 14.198 145.521 16.024C145.521 17.828 145.092 19.434 144.234 20.842C143.376 22.25 142.232 23.361 140.802 24.175C139.372 24.989 137.788 25.396 136.05 25.396ZM136.05 21.436C137.018 21.436 137.865 21.205 138.591 20.743C139.339 20.281 139.922 19.643 140.34 18.829C140.78 17.993 141 17.058 141 16.024C141 14.968 140.78 14.044 140.34 13.252C139.922 12.438 139.339 11.8 138.591 11.338C137.865 10.854 137.018 10.612 136.05 10.612C135.06 10.612 134.191 10.854 133.443 11.338C132.695 11.8 132.101 12.438 131.661 13.252C131.243 14.044 131.034 14.968 131.034 16.024C131.034 17.058 131.243 17.993 131.661 18.829C132.101 19.643 132.695 20.281 133.443 20.743C134.191 21.205 135.06 21.436 136.05 21.436ZM149.459 25V7.048H153.518V11.041L153.188 10.447C153.606 9.105 154.255 8.17 155.135 7.642C156.037 7.114 157.115 6.85 158.369 6.85H159.425V10.678H157.874C156.642 10.678 155.652 11.063 154.904 11.833C154.156 12.581 153.782 13.637 153.782 15.001V25H149.459ZM170.976 25.396C169.128 25.396 167.511 24.978 166.125 24.142C164.739 23.306 163.661 22.173 162.891 20.743C162.121 19.313 161.736 17.729 161.736 15.991C161.736 14.187 162.121 12.592 162.891 11.206C163.683 9.798 164.75 8.687 166.092 7.873C167.456 7.059 168.974 6.652 170.646 6.652C172.054 6.652 173.286 6.883 174.342 7.345C175.42 7.807 176.333 8.445 177.081 9.259C177.829 10.073 178.401 11.008 178.797 12.064C179.193 13.098 179.391 14.22 179.391 15.43C179.391 15.738 179.369 16.057 179.325 16.387C179.303 16.717 179.248 17.003 179.16 17.245H165.3V13.945H176.718L174.672 15.496C174.87 14.484 174.815 13.582 174.507 12.79C174.221 11.998 173.737 11.371 173.055 10.909C172.395 10.447 171.592 10.216 170.646 10.216C169.744 10.216 168.941 10.447 168.237 10.909C167.533 11.349 166.994 12.009 166.62 12.889C166.268 13.747 166.136 14.792 166.224 16.024C166.136 17.124 166.279 18.103 166.653 18.961C167.049 19.797 167.621 20.446 168.369 20.908C169.139 21.37 170.019 21.601 171.009 21.601C171.999 21.601 172.835 21.392 173.517 20.974C174.221 20.556 174.771 19.995 175.167 19.291L178.665 21.007C178.313 21.865 177.763 22.624 177.015 23.284C176.267 23.944 175.376 24.461 174.342 24.835C173.33 25.209 172.208 25.396 170.976 25.396Z" fill="white"/>
<path d="M185.374 25V20.38H189.73V25H185.374Z" fill="#F4890A"/>
</svg>
