<svg width="61" height="60" viewBox="0 0 61 60" fill="none" xmlns="http://www.w3.org/2000/svg">
<g id="solar:cart-cross-outline">
<path id="Vector" d="M30.977 22.425C30.8048 22.2408 30.5971 22.093 30.3664 21.9906C30.1356 21.8881 29.8865 21.833 29.6339 21.8285C29.3814 21.8241 29.1305 21.8704 28.8962 21.9647C28.662 22.059 28.4492 22.1994 28.2706 22.3774C28.092 22.5555 27.9511 22.7676 27.8565 23.001C27.7619 23.2345 27.7154 23.4846 27.7199 23.7363C27.7244 23.9881 27.7796 24.2364 27.8825 24.4664C27.9853 24.6964 28.1335 24.9034 28.3183 25.075L30.7513 27.5L28.3183 29.925C28.1335 30.0967 27.9853 30.3037 27.8825 30.5337C27.7796 30.7637 27.7244 31.012 27.7199 31.2637C27.7154 31.5155 27.7619 31.7655 27.8565 31.999C27.9511 32.2325 28.092 32.4446 28.2706 32.6226C28.4492 32.8007 28.662 32.941 28.8962 33.0353C29.1305 33.1296 29.3814 33.1759 29.6339 33.1715C29.8865 33.1671 30.1356 33.112 30.3664 33.0095C30.5971 32.907 30.8048 32.7592 30.977 32.575L33.41 30.15L35.8429 32.575C36.0151 32.7592 36.2228 32.907 36.4536 33.0095C36.6843 33.112 36.9334 33.1671 37.186 33.1715C37.4386 33.1759 37.6895 33.1296 37.9237 33.0353C38.1579 32.941 38.3707 32.8007 38.5493 32.6226C38.728 32.4446 38.8688 32.2325 38.9634 31.999C39.058 31.7655 39.1045 31.5155 39.1 31.2637C39.0956 31.012 39.0403 30.7637 38.9375 30.5337C38.8346 30.3037 38.6864 30.0967 38.5016 29.925L36.0686 27.5L38.5016 25.075C38.6864 24.9034 38.8346 24.6964 38.9375 24.4664C39.0403 24.2364 39.0956 23.9881 39.1 23.7363C39.1045 23.4846 39.058 23.2345 38.9634 23.001C38.8688 22.7676 38.728 22.5555 38.5493 22.3774C38.3707 22.1994 38.1579 22.059 37.9237 21.9647C37.6895 21.8704 37.4386 21.8241 37.186 21.8285C36.9334 21.833 36.6843 21.8881 36.4536 21.9906C36.2228 22.093 36.0151 22.2408 35.8429 22.425L33.41 24.85L30.977 22.425Z" fill="#272727"/>
<path id="Vector_2" fill-rule="evenodd" clip-rule="evenodd" d="M4.04652 6.87749C4.2119 6.40844 4.55741 6.02406 5.00706 5.80887C5.45672 5.59369 5.97371 5.56531 6.44436 5.72999L7.19932 5.99499C8.74688 6.53749 10.0587 6.99749 11.0945 7.50249C12.1981 8.04499 13.1462 8.70999 13.8586 9.74999C14.5659 10.78 14.8593 11.9125 14.9923 13.155L15.0199 13.425H43.7437C45.7979 13.425 47.8897 13.425 49.6128 13.6175C50.4907 13.715 51.361 13.87 52.1285 14.14C52.881 14.4025 53.7112 14.835 54.3006 15.6C55.2588 16.84 55.4268 18.285 55.3365 19.75C55.2487 21.145 54.9026 22.88 54.4888 24.9425L54.4637 25.075L54.4587 25.085L53.1845 31.26C52.8083 33.075 52.4922 34.6025 52.0834 35.81C51.652 37.085 51.055 38.21 49.984 39.08C48.913 39.9475 47.6865 40.305 46.3447 40.47C45.078 40.625 43.5104 40.625 41.6543 40.625H28.0926C24.719 40.625 21.9851 40.625 19.8331 40.32C17.5832 40.0025 15.6946 39.32 14.2072 37.755C12.8352 36.315 12.1028 34.785 11.7366 32.65C11.393 30.65 11.3604 28.03 11.3604 24.4V17.595C11.3604 15.745 11.3554 14.5075 11.2526 13.5575C11.1522 12.65 10.9792 12.195 10.7509 11.865C10.5327 11.5425 10.1991 11.24 9.43663 10.87C8.62648 10.475 7.52539 10.085 5.84991 9.49749L5.19778 9.26999C4.96426 9.18863 4.74912 9.06217 4.5647 8.89783C4.38027 8.73349 4.23018 8.53451 4.12301 8.31228C4.01584 8.09005 3.9537 7.84893 3.94014 7.60273C3.92659 7.35652 3.96439 7.11008 4.04652 6.87749ZM15.1202 17.175V24.4C15.1202 28.1225 15.1653 30.395 15.4463 32.0175C15.6996 33.505 16.1335 34.33 16.9361 35.175C17.6209 35.895 18.5664 36.355 20.3598 36.6075C22.2159 36.87 24.6839 36.875 28.2355 36.875H41.539C43.543 36.875 44.8749 36.8725 45.8882 36.75C46.8463 36.6325 47.2928 36.4275 47.6063 36.1725C47.9198 35.9175 48.2082 35.5225 48.5193 34.61C48.8453 33.6475 49.1162 32.3475 49.5225 30.39L50.7716 24.34V24.335C51.2181 22.11 51.5115 20.63 51.5793 19.52C51.6445 18.4675 51.4789 18.0975 51.3259 17.895C51.192 17.7969 51.0417 17.7233 50.882 17.6775C50.3339 17.5054 49.7688 17.3931 49.1965 17.3425C47.7041 17.1775 45.8129 17.175 43.6659 17.175H15.1202ZM13.9714 48.75C13.9714 50.2418 14.566 51.6726 15.6244 52.7275C16.6827 53.7824 18.1181 54.375 19.6149 54.375C21.1116 54.375 22.547 53.7824 23.6054 52.7275C24.6637 51.6726 25.2583 50.2418 25.2583 48.75C25.2583 47.2581 24.6637 45.8274 23.6054 44.7725C22.547 43.7176 21.1116 43.125 19.6149 43.125C18.1181 43.125 16.6827 43.7176 15.6244 44.7725C14.566 45.8274 13.9714 47.2581 13.9714 48.75ZM19.6149 50.625C19.116 50.625 18.6375 50.4274 18.2847 50.0758C17.9319 49.7242 17.7337 49.2473 17.7337 48.75C17.7337 48.2527 17.9319 47.7758 18.2847 47.4242C18.6375 47.0725 19.116 46.875 19.6149 46.875C20.1138 46.875 20.5923 47.0725 20.945 47.4242C21.2978 47.7758 21.496 48.2527 21.496 48.75C21.496 49.2473 21.2978 49.7242 20.945 50.0758C20.5923 50.4274 20.1138 50.625 19.6149 50.625ZM36.5452 48.75C36.5452 49.4887 36.6911 50.2201 36.9747 50.9026C37.2584 51.585 37.674 52.2051 38.1981 52.7275C38.7221 53.2498 39.3442 53.6641 40.0289 53.9468C40.7136 54.2295 41.4475 54.375 42.1886 54.375C42.9297 54.375 43.6635 54.2295 44.3482 53.9468C45.0329 53.6641 45.6551 53.2498 46.1791 52.7275C46.7031 52.2051 47.1188 51.585 47.4024 50.9026C47.6861 50.2201 47.832 49.4887 47.832 48.75C47.832 47.2581 47.2374 45.8274 46.1791 44.7725C45.1207 43.7176 43.6853 43.125 42.1886 43.125C40.6919 43.125 39.2564 43.7176 38.1981 44.7725C37.1397 45.8274 36.5452 47.2581 36.5452 48.75ZM42.1886 50.625C41.6897 50.625 41.2112 50.4274 40.8584 50.0758C40.5056 49.7242 40.3074 49.2473 40.3074 48.75C40.3074 48.2527 40.5056 47.7758 40.8584 47.4242C41.2112 47.0725 41.6897 46.875 42.1886 46.875C42.6875 46.875 43.166 47.0725 43.5188 47.4242C43.8715 47.7758 44.0697 48.2527 44.0697 48.75C44.0697 49.2473 43.8715 49.7242 43.5188 50.0758C43.166 50.4274 42.6875 50.625 42.1886 50.625Z" fill="#272727"/>
</g>
</svg>
