<svg width="19" height="18" viewBox="0 0 19 18" fill="none" xmlns="http://www.w3.org/2000/svg">
<path fill-rule="evenodd" clip-rule="evenodd" d="M2.18713 1.71889C2.0463 1.66937 1.89157 1.67781 1.75696 1.74237C1.62236 1.80693 1.51891 1.92231 1.46938 2.06314C1.41985 2.20397 1.4283 2.35871 1.49286 2.49332C1.55742 2.62792 1.6728 2.73137 1.81363 2.78089L2.01013 2.84914C2.51038 3.02539 2.83963 3.14164 3.08188 3.26089C3.30913 3.37264 3.40963 3.46339 3.47563 3.55939C3.54313 3.65839 3.59563 3.79489 3.62563 4.06714C3.65563 4.35214 3.65638 4.72339 3.65638 5.27839V7.3199C3.65638 8.40965 3.66688 9.1949 3.76963 9.7949C3.87913 10.4354 4.09813 10.8944 4.50838 11.3264C4.95388 11.7966 5.51788 12.0014 6.19063 12.0959C6.83413 12.1874 7.65163 12.1874 8.66038 12.1874H12.7149C13.2714 12.1874 13.7394 12.1874 14.1174 12.1409C14.5201 12.0921 14.8861 11.9841 15.2064 11.7239C15.5259 11.4629 15.7051 11.1261 15.8341 10.7421C15.9564 10.3806 16.0509 9.9224 16.1634 9.37715L16.5444 7.5254L16.5459 7.52165L16.5534 7.48265C16.6771 6.8639 16.7806 6.3434 16.8069 5.9249C16.8339 5.48539 16.7836 5.05189 16.4971 4.67989C16.3209 4.45039 16.0734 4.32064 15.8476 4.24189C15.6037 4.1617 15.3517 4.10887 15.0961 4.08439C14.5809 4.02739 13.9546 4.02739 13.3411 4.02739H4.75063C4.74838 4.00037 4.74588 3.97337 4.74313 3.94639C4.70263 3.57364 4.61563 3.23389 4.40338 2.92489C4.19038 2.61289 3.90688 2.41339 3.57688 2.25064C3.26788 2.09914 2.87488 1.96114 2.41213 1.79839L2.18713 1.71889ZM4.78213 5.15239H13.3171C13.9591 5.15239 14.5246 5.15314 14.9709 5.20264C15.1929 5.22814 15.3586 5.26265 15.4749 5.30314C15.5223 5.31672 15.567 5.33856 15.6069 5.36765C15.6534 5.42915 15.7029 5.54015 15.6834 5.8559C15.6631 6.1889 15.5761 6.6329 15.4426 7.3004V7.3019L15.0676 9.1169C14.9476 9.70415 14.8651 10.0941 14.7684 10.3829C14.6761 10.6574 14.5891 10.7751 14.4954 10.8516C14.4016 10.9281 14.2681 10.9896 13.9816 11.0241C13.6786 11.0616 13.2804 11.0624 12.6811 11.0624H8.70388C7.64113 11.0624 6.90388 11.0609 6.34888 10.9821C5.81188 10.9064 5.52913 10.7684 5.32438 10.5524C5.08438 10.2989 4.95463 10.0514 4.87813 9.60515C4.79563 9.11765 4.78138 8.43665 4.78138 7.3199L4.78213 5.15239ZM6.12538 16.3124C5.67783 16.3124 5.24861 16.1346 4.93214 15.8181C4.61567 15.5017 4.43788 15.0724 4.43788 14.6249C4.43788 14.1773 4.61567 13.7481 4.93214 13.4317C5.24861 13.1152 5.67783 12.9374 6.12538 12.9374C6.57294 12.9374 7.00216 13.1152 7.31863 13.4317C7.63509 13.7481 7.81288 14.1773 7.81288 14.6249C7.81288 15.0724 7.63509 15.5017 7.31863 15.8181C7.00216 16.1346 6.57294 16.3124 6.12538 16.3124ZM5.56288 14.6249C5.56288 14.7741 5.62215 14.9172 5.72764 15.0226C5.83312 15.1281 5.9762 15.1874 6.12538 15.1874C6.27457 15.1874 6.41764 15.1281 6.52313 15.0226C6.62862 14.9172 6.68788 14.7741 6.68788 14.6249C6.68788 14.4757 6.62862 14.3326 6.52313 14.2271C6.41764 14.1217 6.27457 14.0624 6.12538 14.0624C5.9762 14.0624 5.83312 14.1217 5.72764 14.2271C5.62215 14.3326 5.56288 14.4757 5.56288 14.6249ZM12.8754 16.3124C12.4278 16.3124 11.9986 16.1346 11.6821 15.8181C11.3657 15.5017 11.1879 15.0724 11.1879 14.6249C11.1879 14.1773 11.3657 13.7481 11.6821 13.4317C11.9986 13.1152 12.4278 12.9374 12.8754 12.9374C13.3229 12.9374 13.7522 13.1152 14.0686 13.4317C14.3851 13.7481 14.5629 14.1773 14.5629 14.6249C14.5629 15.0724 14.3851 15.5017 14.0686 15.8181C13.7522 16.1346 13.3229 16.3124 12.8754 16.3124ZM12.3129 14.6249C12.3129 14.7741 12.3721 14.9172 12.4776 15.0226C12.5831 15.1281 12.7262 15.1874 12.8754 15.1874C13.0246 15.1874 13.1676 15.1281 13.2731 15.0226C13.3786 14.9172 13.4379 14.7741 13.4379 14.6249C13.4379 14.4757 13.3786 14.3326 13.2731 14.2271C13.1676 14.1217 13.0246 14.0624 12.8754 14.0624C12.7262 14.0624 12.5831 14.1217 12.4776 14.2271C12.3721 14.3326 12.3129 14.4757 12.3129 14.6249Z" fill="#272727"/>
</svg>
