<svg width="190" height="26" viewBox="0 0 190 26" fill="none" xmlns="http://www.w3.org/2000/svg">
<path d="M0.876 25V0.414998H11.238C13.658 0.414998 15.561 1.031 16.947 2.263C18.333 3.495 19.026 5.189 19.026 7.345C19.026 8.181 18.861 8.973 18.531 9.721C18.223 10.469 17.728 11.151 17.046 11.767C18.146 12.471 18.916 13.318 19.356 14.308C19.796 15.298 20.016 16.354 20.016 17.476C20.016 19.83 19.235 21.678 17.673 23.02C16.133 24.34 13.988 25 11.238 25H0.876ZM5.364 9.952H11.469C12.393 9.952 13.13 9.688 13.68 9.16C14.23 8.61 14.505 7.906 14.505 7.048C14.505 6.19 14.23 5.508 13.68 5.002C13.13 4.496 12.393 4.243 11.469 4.243H5.364V9.952ZM5.364 21.04H11.7C12.866 21.04 13.79 20.721 14.472 20.083C15.176 19.423 15.528 18.554 15.528 17.476C15.528 16.376 15.176 15.507 14.472 14.869C13.79 14.209 12.866 13.879 11.7 13.879H5.364V21.04ZM29.4344 25.396C27.5644 25.396 26.0684 24.934 24.9464 24.01C23.8244 23.086 23.2634 21.832 23.2634 20.248C23.2634 18.752 23.7694 17.509 24.7814 16.519C25.7934 15.529 27.3554 14.858 29.4674 14.506L34.8134 13.648V13.054C34.8134 12.284 34.5054 11.646 33.8894 11.14C33.2954 10.612 32.5034 10.348 31.5134 10.348C30.5674 10.348 29.7424 10.601 29.0384 11.107C28.3344 11.591 27.8174 12.24 27.4874 13.054L23.9564 11.338C24.4844 9.93 25.4524 8.797 26.8604 7.939C28.2684 7.081 29.8744 6.652 31.6784 6.652C33.1524 6.652 34.4394 6.927 35.5394 7.477C36.6614 8.005 37.5414 8.753 38.1794 9.721C38.8174 10.689 39.1364 11.8 39.1364 13.054V25H35.0444V23.086C33.6364 24.626 31.7664 25.396 29.4344 25.396ZM27.7514 20.083C27.7514 20.699 27.9824 21.194 28.4444 21.568C28.9064 21.92 29.5004 22.096 30.2264 22.096C31.5904 22.096 32.6904 21.667 33.5264 20.809C34.3844 19.951 34.8134 18.906 34.8134 17.674V16.948L30.2924 17.707C28.5984 18.037 27.7514 18.829 27.7514 20.083ZM50.623 25.396C48.709 25.396 47.037 24.934 45.607 24.01C44.199 23.086 43.231 21.854 42.703 20.314L45.937 18.763C46.421 19.775 47.07 20.567 47.884 21.139C48.698 21.711 49.611 21.997 50.623 21.997C51.393 21.997 52.009 21.832 52.471 21.502C52.955 21.15 53.197 20.677 53.197 20.083C53.197 19.577 52.988 19.181 52.57 18.895C52.174 18.587 51.69 18.356 51.118 18.202L48.181 17.377C46.663 16.937 45.508 16.266 44.716 15.364C43.946 14.462 43.561 13.395 43.561 12.163C43.561 11.063 43.836 10.106 44.386 9.292C44.958 8.456 45.739 7.807 46.729 7.345C47.741 6.883 48.896 6.652 50.194 6.652C51.888 6.652 53.384 7.07 54.682 7.906C55.98 8.72 56.904 9.853 57.454 11.305L54.154 12.856C53.868 12.042 53.351 11.393 52.603 10.909C51.877 10.425 51.063 10.183 50.161 10.183C49.435 10.183 48.863 10.348 48.445 10.678C48.027 11.008 47.818 11.437 47.818 11.965C47.818 12.471 48.016 12.867 48.412 13.153C48.808 13.439 49.314 13.67 49.93 13.846L52.801 14.704C54.297 15.122 55.441 15.782 56.233 16.684C57.025 17.586 57.421 18.664 57.421 19.918C57.421 20.996 57.135 21.953 56.563 22.789C55.991 23.603 55.199 24.241 54.187 24.703C53.175 25.165 51.987 25.396 50.623 25.396ZM61.4032 5.035V0.414998H65.7262V5.035H61.4032ZM61.4032 25V7.048H65.7262V25H61.4032ZM79.0236 25.396C77.2416 25.396 75.6356 24.989 74.2056 24.175C72.7976 23.339 71.6866 22.217 70.8726 20.809C70.0586 19.379 69.6516 17.773 69.6516 15.991C69.6516 14.209 70.0586 12.614 70.8726 11.206C71.6866 9.798 72.7976 8.687 74.2056 7.873C75.6356 7.059 77.2416 6.652 79.0236 6.652C80.2996 6.652 81.4876 6.872 82.5876 7.312C83.6876 7.752 84.6336 8.379 85.4256 9.193C86.2176 9.985 86.8006 10.909 87.1746 11.965L83.3796 13.615C83.0276 12.713 82.4666 11.987 81.6966 11.437C80.9486 10.887 80.0576 10.612 79.0236 10.612C78.0776 10.612 77.2306 10.843 76.4826 11.305C75.7566 11.767 75.1846 12.405 74.7666 13.219C74.3486 14.033 74.1396 14.968 74.1396 16.024C74.1396 17.058 74.3486 17.993 74.7666 18.829C75.1846 19.643 75.7566 20.281 76.4826 20.743C77.2306 21.205 78.0776 21.436 79.0236 21.436C80.0576 21.436 80.9486 21.172 81.6966 20.644C82.4666 20.094 83.0276 19.346 83.3796 18.4L87.1746 20.116C86.8226 21.128 86.2506 22.041 85.4586 22.855C84.6666 23.647 83.7206 24.274 82.6206 24.736C81.5206 25.176 80.3216 25.396 79.0236 25.396Z" fill="#F4890A"/>
<path d="M100.256 25.396C98.6938 25.396 97.2418 25.11 95.8998 24.538C94.5798 23.966 93.4358 23.174 92.4678 22.162C91.5218 21.128 90.8288 19.929 90.3888 18.565L94.1178 16.948C94.7118 18.356 95.5698 19.467 96.6918 20.281C97.8138 21.073 99.0788 21.469 100.487 21.469C101.653 21.469 102.588 21.194 103.292 20.644C104.018 20.094 104.381 19.368 104.381 18.466C104.381 17.74 104.161 17.146 103.721 16.684C103.303 16.222 102.665 15.848 101.807 15.562L97.0878 14.044C95.1738 13.428 93.7328 12.537 92.7648 11.371C91.7968 10.183 91.3128 8.786 91.3128 7.18C91.3128 5.772 91.6538 4.529 92.3358 3.451C93.0398 2.373 94.0078 1.537 95.2398 0.942999C96.4938 0.326999 97.9238 0.018999 99.5298 0.018999C101.752 0.018999 103.677 0.579999 105.305 1.702C106.955 2.824 108.11 4.309 108.77 6.157L105.074 7.807C104.59 6.575 103.864 5.629 102.896 4.969C101.928 4.287 100.806 3.946 99.5298 3.946C98.3858 3.946 97.4618 4.232 96.7578 4.804C96.0758 5.354 95.7348 6.08 95.7348 6.982C95.7348 7.664 95.9548 8.269 96.3948 8.797C96.8568 9.303 97.5278 9.699 98.4078 9.985L102.929 11.404C106.845 12.658 108.803 14.924 108.803 18.202C108.803 19.61 108.44 20.853 107.714 21.931C106.988 23.009 105.987 23.856 104.711 24.472C103.435 25.088 101.95 25.396 100.256 25.396ZM121.325 25.198C119.301 25.198 117.728 24.637 116.606 23.515C115.506 22.393 114.956 20.831 114.956 18.829V10.909H111.854V7.048H112.184C113.064 7.048 113.746 6.817 114.23 6.355C114.714 5.893 114.956 5.222 114.956 4.342V2.956H119.279V7.048H123.404V10.909H119.279V18.598C119.279 19.5 119.521 20.193 120.005 20.677C120.489 21.161 121.259 21.403 122.315 21.403C122.667 21.403 123.052 21.37 123.47 21.304V25.033C122.766 25.143 122.051 25.198 121.325 25.198ZM136.05 25.396C134.29 25.396 132.684 24.989 131.232 24.175C129.802 23.361 128.658 22.25 127.8 20.842C126.964 19.434 126.546 17.828 126.546 16.024C126.546 14.22 126.964 12.614 127.8 11.206C128.658 9.798 129.802 8.687 131.232 7.873C132.662 7.059 134.268 6.652 136.05 6.652C137.81 6.652 139.405 7.059 140.835 7.873C142.265 8.687 143.398 9.798 144.234 11.206C145.092 12.614 145.521 14.22 145.521 16.024C145.521 17.828 145.092 19.445 144.234 20.875C143.376 22.283 142.232 23.394 140.802 24.208C139.372 25 137.788 25.396 136.05 25.396ZM136.05 21.436C137.018 21.436 137.865 21.205 138.591 20.743C139.339 20.281 139.922 19.643 140.34 18.829C140.78 17.993 141 17.058 141 16.024C141 14.99 140.78 14.066 140.34 13.252C139.922 12.438 139.339 11.8 138.591 11.338C137.865 10.854 137.018 10.612 136.05 10.612C135.082 10.612 134.213 10.854 133.443 11.338C132.695 11.8 132.101 12.438 131.661 13.252C131.243 14.066 131.034 14.99 131.034 16.024C131.034 17.058 131.243 17.993 131.661 18.829C132.101 19.643 132.695 20.281 133.443 20.743C134.213 21.205 135.082 21.436 136.05 21.436ZM149.459 25V7.048H153.518V9.589C153.98 8.555 154.629 7.84 155.465 7.444C156.301 7.048 157.269 6.85 158.369 6.85H159.425V10.678H157.874C156.664 10.678 155.674 11.063 154.904 11.833C154.156 12.581 153.782 13.637 153.782 15.001V25H149.459ZM170.976 25.396C169.128 25.396 167.511 24.978 166.125 24.142C164.739 23.306 163.661 22.173 162.891 20.743C162.121 19.313 161.736 17.729 161.736 15.991C161.736 14.187 162.121 12.592 162.891 11.206C163.683 9.798 164.75 8.687 166.092 7.873C167.456 7.059 168.974 6.652 170.646 6.652C172.516 6.652 174.1 7.059 175.398 7.873C176.696 8.665 177.686 9.721 178.368 11.041C179.05 12.361 179.391 13.824 179.391 15.43C179.391 15.76 179.369 16.09 179.325 16.42C179.303 16.728 179.248 17.003 179.16 17.245H166.224C166.356 18.565 166.862 19.621 167.742 20.413C168.622 21.205 169.711 21.601 171.009 21.601C171.999 21.601 172.835 21.392 173.517 20.974C174.221 20.534 174.771 19.973 175.167 19.291L178.665 21.007C178.115 22.283 177.147 23.339 175.761 24.175C174.397 24.989 172.802 25.396 170.976 25.396ZM170.646 10.216C169.568 10.216 168.633 10.546 167.841 11.206C167.071 11.844 166.565 12.757 166.323 13.945H174.771C174.683 12.845 174.254 11.954 173.484 11.272C172.736 10.568 171.79 10.216 170.646 10.216Z" fill="#272727"/>
<path d="M185.374 25V20.38H189.73V25H185.374Z" fill="#F4890A"/>
</svg>
