<svg width="19" height="18" viewBox="0 0 19 18" fill="none" xmlns="http://www.w3.org/2000/svg">
<path fill-rule="evenodd" clip-rule="evenodd" d="M9.50004 0.9375C8.55521 0.9375 7.64907 1.31283 6.98097 1.98093C6.31288 2.64903 5.93754 3.55517 5.93754 4.5C5.93754 5.44483 6.31288 6.35097 6.98097 7.01907C7.64907 7.68716 8.55521 8.0625 9.50004 8.0625C10.4449 8.0625 11.351 7.68716 12.0191 7.01907C12.6872 6.35097 13.0625 5.44483 13.0625 4.5C13.0625 3.55517 12.6872 2.64903 12.0191 1.98093C11.351 1.31283 10.4449 0.9375 9.50004 0.9375ZM7.06254 4.5C7.06254 3.85353 7.31935 3.23355 7.77647 2.77643C8.23359 2.31931 8.85358 2.0625 9.50004 2.0625C10.1465 2.0625 10.7665 2.31931 11.2236 2.77643C11.6807 3.23355 11.9375 3.85353 11.9375 4.5C11.9375 5.14646 11.6807 5.76645 11.2236 6.22357C10.7665 6.68069 10.1465 6.9375 9.50004 6.9375C8.85358 6.9375 8.23359 6.68069 7.77647 6.22357C7.31935 5.76645 7.06254 5.14646 7.06254 4.5ZM9.50004 9.1875C7.76529 9.1875 6.16629 9.582 4.98204 10.248C3.81504 10.905 2.93754 11.8995 2.93754 13.125V13.2015C2.93679 14.073 2.93604 15.1665 3.89529 15.948C4.36704 16.332 5.02779 16.6057 5.92029 16.7857C6.81429 16.9672 7.98054 17.0625 9.50004 17.0625C11.0195 17.0625 12.185 16.9672 13.0805 16.7857C13.973 16.6057 14.633 16.332 15.1055 15.948C16.0648 15.1665 16.0633 14.073 16.0625 13.2015V13.125C16.0625 11.8995 15.185 10.905 14.0188 10.248C12.8338 9.582 11.2355 9.1875 9.50004 9.1875ZM4.06254 13.125C4.06254 12.4867 4.52904 11.7937 5.53329 11.229C6.52029 10.674 7.92129 10.3125 9.50079 10.3125C11.0788 10.3125 12.4798 10.674 13.4668 11.229C14.4718 11.7937 14.9375 12.4867 14.9375 13.125C14.9375 14.106 14.9075 14.658 14.3945 15.075C14.117 15.3015 13.652 15.5227 12.857 15.6832C12.0643 15.8437 10.9805 15.9375 9.50004 15.9375C8.01954 15.9375 6.93504 15.8437 6.14304 15.6832C5.34804 15.5227 4.88304 15.3015 4.60554 15.0757C4.09254 14.658 4.06254 14.106 4.06254 13.125Z" fill="#272727"/>
</svg>
