<svg width="19" height="18" viewBox="0 0 19 18" fill="none" xmlns="http://www.w3.org/2000/svg">
<path fill-rule="evenodd" clip-rule="evenodd" d="M9.125 2.0625C8.2632 2.0625 7.40984 2.23224 6.61364 2.56204C5.81744 2.89184 5.094 3.37523 4.48461 3.98461C3.87523 4.594 3.39184 5.31744 3.06204 6.11364C2.73224 6.90984 2.5625 7.7632 2.5625 8.625C2.5625 9.4868 2.73224 10.3402 3.06204 11.1364C3.39184 11.9326 3.87523 12.656 4.48461 13.2654C5.094 13.8748 5.81744 14.3582 6.61364 14.688C7.40984 15.0178 8.2632 15.1875 9.125 15.1875C10.8655 15.1875 12.5347 14.4961 13.7654 13.2654C14.9961 12.0347 15.6875 10.3655 15.6875 8.625C15.6875 6.88452 14.9961 5.21532 13.7654 3.98461C12.5347 2.7539 10.8655 2.0625 9.125 2.0625ZM1.4375 8.625C1.4375 4.38 4.88 0.9375 9.125 0.9375C13.37 0.9375 16.8125 4.38 16.8125 8.625C16.8125 10.545 16.1083 12.3015 14.9443 13.6485L17.3975 16.1025C17.4528 16.154 17.4971 16.2161 17.5278 16.2851C17.5586 16.3541 17.5751 16.4286 17.5764 16.5041C17.5778 16.5796 17.5639 16.6547 17.5356 16.7247C17.5073 16.7947 17.4652 16.8584 17.4118 16.9118C17.3584 16.9652 17.2947 17.0073 17.2247 17.0356C17.1547 17.0639 17.0796 17.0778 17.0041 17.0764C16.9286 17.0751 16.8541 17.0586 16.7851 17.0278C16.7161 16.9971 16.654 16.9528 16.6025 16.8975L14.1485 14.4443C12.7537 15.6518 10.9699 16.3152 9.125 16.3125C4.88 16.3125 1.4375 12.87 1.4375 8.625Z" fill="#272727"/>
</svg>
