<svg width="34" height="33" viewBox="0 0 34 33" fill="none" xmlns="http://www.w3.org/2000/svg">
<g id="solar:tag-price-outline">
<path id="Vector" fill-rule="evenodd" clip-rule="evenodd" d="M15.9526 3.84867C15.1084 3.96004 14.0661 4.19929 12.5839 4.54167L10.894 4.93217C9.64275 5.22092 8.77925 5.42167 8.12062 5.64717C7.484 5.86579 7.12375 6.08029 6.85287 6.35254C6.58062 6.62342 6.36612 6.98367 6.1475 7.62029C5.922 8.27892 5.72125 9.14104 5.4325 10.3937L5.042 12.0822C4.69962 13.5658 4.46037 14.608 4.349 15.4523C4.239 16.2745 4.26512 16.8314 4.41087 17.3374C4.55525 17.8434 4.82887 18.3288 5.35687 18.9682C5.9 19.6254 6.65487 20.383 7.7315 21.4597L10.2477 23.9759C12.1164 25.8445 13.446 27.1714 14.59 28.0432C15.7092 28.8984 16.5287 29.2188 17.3606 29.2188C18.1939 29.2188 19.012 28.8984 20.1326 28.0432C21.2752 27.1714 22.6063 25.8432 24.4749 23.9745C26.3449 22.1045 27.6717 20.7749 28.5449 19.6323C29.3974 18.5117 29.7191 17.6935 29.7191 16.8603C29.7191 16.0284 29.3988 15.2103 28.5435 14.0897C27.6717 12.9457 26.3435 11.6147 24.4749 9.74604L21.9586 7.22979C20.8834 6.15454 20.1257 5.39967 19.4699 4.85654C18.8291 4.32854 18.3438 4.05492 17.8377 3.91054C17.3317 3.76479 16.7749 3.74004 15.954 3.84867M15.6845 1.80404C16.6704 1.67342 17.5352 1.67754 18.407 1.92779C19.2801 2.17804 20.0157 2.63317 20.783 3.26567C21.5255 3.87892 22.3505 4.70392 23.3831 5.73654L25.9901 8.34354C27.7914 10.1448 29.2186 11.572 30.1839 12.8398C31.1794 14.1419 31.783 15.3959 31.783 16.8603C31.783 18.326 31.1794 19.58 30.1852 20.8822C29.2186 22.1499 27.7927 23.5772 25.9901 25.3784L25.8801 25.4884C24.0789 27.2897 22.6516 28.7169 21.3839 29.6822C20.0817 30.6777 18.8264 31.2813 17.362 31.2813C15.8976 31.2813 14.6436 30.6777 13.3401 29.6835C12.0737 28.7169 10.6465 27.291 8.84387 25.4884L6.23825 22.88C5.207 21.8488 4.38062 21.0224 3.76737 20.2813C3.13487 19.5127 2.67975 18.777 2.4295 17.9053C2.17925 17.0322 2.17512 16.1673 2.30575 15.1814C2.43087 14.2272 2.69487 13.0887 3.02212 11.6669L3.43462 9.87529C3.70962 8.68867 3.93237 7.72067 4.19775 6.94929C4.4755 6.14217 4.82337 5.46429 5.39537 4.89229C5.96737 4.32029 6.64663 3.97104 7.45237 3.69604C8.22375 3.42929 9.19175 3.20654 10.3784 2.93292L12.17 2.52042C13.5918 2.19042 14.7302 1.92917 15.6845 1.80267M13.5491 10.9932C13.2268 10.6708 12.7895 10.4897 12.3336 10.4897C11.8777 10.4897 11.4405 10.6708 11.1181 10.9932C10.7958 11.3155 10.6146 11.7528 10.6146 12.2087C10.6146 12.6646 10.7958 13.1018 11.1181 13.4242C11.2777 13.5838 11.4672 13.7104 11.6758 13.7968C11.8844 13.8832 12.1079 13.9276 12.3336 13.9276C12.5594 13.9276 12.7829 13.8832 12.9914 13.7968C13.2 13.7104 13.3895 13.5838 13.5491 13.4242C13.7087 13.2645 13.8354 13.075 13.9218 12.8665C14.0081 12.6579 14.0526 12.4344 14.0526 12.2087C14.0526 11.9829 14.0081 11.7594 13.9218 11.5508C13.8354 11.3423 13.7087 11.1528 13.5491 10.9932ZM9.65925 9.53567C10.3684 8.82638 11.3302 8.42783 12.3331 8.4277C13.3361 8.42757 14.298 8.82587 15.0073 9.53498C15.7166 10.2441 16.1151 11.2059 16.1153 12.2089C16.1154 13.2118 15.7171 14.1738 15.008 14.883C14.2987 15.5923 13.3367 15.9908 12.3336 15.9908C11.3305 15.9908 10.3685 15.5923 9.65925 14.883C8.94996 14.1738 8.55149 13.2118 8.55149 12.2087C8.55149 11.2056 8.94996 10.245 9.65925 9.53567ZM18.363 16.6458C18.0451 16.6579 17.7448 16.7947 17.527 17.0267C16.9935 17.5602 17.1337 18.0923 17.2836 18.2422C17.4349 18.392 17.967 18.5309 18.4991 17.9988C19.5771 16.9208 21.4389 16.5633 22.631 17.7554C23.5564 18.6808 23.5495 20.009 22.9954 21.0609C23.1317 21.2591 23.1944 21.4987 23.1728 21.7383C23.1511 21.9778 23.0463 22.2023 22.8767 22.3728C22.707 22.5433 22.483 22.6491 22.2436 22.6719C22.0041 22.6948 21.7642 22.6332 21.5654 22.4978C20.9483 22.8361 20.2326 22.9489 19.5414 22.8168C19.4087 22.7895 19.2826 22.7364 19.1704 22.6604C19.0582 22.5844 18.9621 22.4871 18.8876 22.374C18.813 22.2608 18.7614 22.1341 18.7358 22.0011C18.7103 21.868 18.7111 21.7313 18.7384 21.5985C18.7656 21.4658 18.8188 21.3398 18.8948 21.2276C18.9707 21.1154 19.0681 21.0193 19.1812 20.9447C19.2943 20.8702 19.421 20.8186 19.5541 20.793C19.6871 20.7674 19.8239 20.7683 19.9566 20.7955C20.2 20.8464 20.5932 20.768 20.9301 20.4298C21.4622 19.8963 21.3234 19.3642 21.1735 19.2143C21.0222 19.0644 20.4901 18.9255 19.958 19.4577C18.88 20.5357 17.0182 20.8932 15.8261 19.701C14.9007 18.7757 14.9076 17.4474 15.4617 16.3955C15.3254 16.1974 15.2627 15.9577 15.2844 15.7182C15.306 15.4786 15.4108 15.2542 15.5805 15.0837C15.7501 14.9132 15.9741 14.8074 16.2135 14.7845C16.453 14.7617 16.6929 14.8233 16.8917 14.9587C17.3592 14.7098 17.8721 14.5778 18.3836 14.5833C18.6571 14.5858 18.9184 14.6969 19.11 14.8921C19.3016 15.0873 19.4078 15.3507 19.4052 15.6242C19.4027 15.8977 19.2916 16.159 19.0964 16.3506C18.9012 16.5421 18.6365 16.6483 18.363 16.6458Z" fill="#F4890A"/>
</g>
</svg>
