<svg width="34" height="33" viewBox="0 0 34 33" fill="none" xmlns="http://www.w3.org/2000/svg">
<g id="solar:chat-round-check-outline">
<path id="Vector" fill-rule="evenodd" clip-rule="evenodd" d="M17 3.78125C13.6268 3.78125 10.3917 5.12126 8.0065 7.50649C5.62127 9.89171 4.28126 13.1268 4.28126 16.5C4.28126 18.5364 4.75976 20.4586 5.60814 22.1623C5.94914 22.847 6.07976 23.6637 5.86526 24.4681L5.04576 27.5275C5.01135 27.6557 5.01128 27.7906 5.04555 27.9189C5.07982 28.0471 5.14723 28.164 5.24101 28.2579C5.33478 28.3518 5.45161 28.4194 5.57977 28.4539C5.70794 28.4883 5.84291 28.4885 5.97114 28.4543L9.03326 27.6348C9.80709 27.4367 10.6266 27.5281 11.3378 27.8919C13.0967 28.7675 15.0352 29.2218 17 29.2188C20.3732 29.2188 23.6083 27.8787 25.9935 25.4935C28.3788 23.1083 29.7188 19.8732 29.7188 16.5C29.7188 13.1268 28.3788 9.89171 25.9935 7.50649C23.6083 5.12126 20.3732 3.78125 17 3.78125ZM2.21876 16.5C2.21876 8.33663 8.83664 1.71875 17 1.71875C25.1634 1.71875 31.7813 8.33663 31.7813 16.5C31.7813 24.6634 25.1634 31.2812 17 31.2812C14.6378 31.2812 12.402 30.7257 10.4179 29.7385C10.1566 29.5993 9.85347 29.5602 9.56539 29.6285L6.50464 30.4466C4.40914 31.0076 2.49239 29.0909 3.05339 26.9954L3.87289 23.9346C3.94115 23.6465 3.90204 23.3434 3.76289 23.0821C2.74464 21.0375 2.216 18.7841 2.21876 16.5ZM21.8538 13.0213C22.0469 13.2146 22.1554 13.4767 22.1554 13.75C22.1554 14.0233 22.0469 14.2854 21.8538 14.4787L16.3538 19.9788C16.163 20.1697 15.9049 20.2783 15.635 20.2811C15.365 20.284 15.1048 20.1808 14.91 19.9939L12.16 17.3539C11.9627 17.1642 11.8488 16.904 11.8434 16.6304C11.838 16.3568 11.9415 16.0923 12.1311 15.895C12.3208 15.6977 12.581 15.5838 12.8546 15.5784C13.1282 15.573 13.3927 15.6765 13.59 15.8661L15.6113 17.8062L20.3963 13.0213C20.5896 12.8281 20.8517 12.7197 21.125 12.7197C21.3983 12.7197 21.6604 12.8281 21.8538 13.0213Z" fill="#F4890A"/>
</g>
</svg>
