<svg width="34" height="33" viewBox="0 0 34 33" fill="none" xmlns="http://www.w3.org/2000/svg">
<g id="solar:cup-outline">
<path id="Vector" fill-rule="evenodd" clip-rule="evenodd" d="M17 1.71884C14.4865 1.71884 12.4089 1.94021 10.8098 2.20971L10.6255 2.24134C9.23675 2.47371 8.08175 2.66759 7.17837 3.77859C6.60087 4.49221 6.4125 5.26359 6.36987 6.12296L5.69337 6.34846C5.05675 6.56021 4.49712 6.74721 4.05575 6.95346C3.57725 7.17621 3.13862 7.46221 2.80312 7.92834C2.46762 8.39309 2.33425 8.90046 2.27375 9.42434C2.21875 9.90971 2.21875 10.4968 2.21875 11.1692V11.3686C2.21875 11.9213 2.21875 12.4095 2.26 12.8178C2.304 13.2592 2.40162 13.6896 2.645 14.1048C2.89112 14.5215 3.21838 14.8157 3.58413 15.0687C3.921 15.3025 4.34725 15.5403 4.83125 15.8085L8.46125 17.8256C9.20375 19.2845 10.2226 20.5852 11.6238 21.5243C12.8434 22.3438 14.3078 22.8581 16.0416 22.9942C15.9934 23.1154 15.9687 23.2447 15.9688 23.3751V25.7813H14.0025C13.4462 25.7814 12.9071 25.9741 12.4769 26.3268C12.0467 26.6796 11.752 27.1705 11.643 27.716L11.3419 29.2188H8.75C8.4765 29.2188 8.21419 29.3275 8.0208 29.5209C7.8274 29.7143 7.71875 29.9766 7.71875 30.2501C7.71875 30.5236 7.8274 30.7859 8.0208 30.9793C8.21419 31.1727 8.4765 31.2813 8.75 31.2813H25.25C25.5235 31.2813 25.7858 31.1727 25.9792 30.9793C26.1726 30.7859 26.2812 30.5236 26.2812 30.2501C26.2812 29.9766 26.1726 29.7143 25.9792 29.5209C25.7858 29.3275 25.5235 29.2188 25.25 29.2188H22.6581L22.357 27.716C22.248 27.1705 21.9533 26.6796 21.5231 26.3268C21.0929 25.9741 20.5538 25.7814 19.9975 25.7813H18.0312V23.3751C18.0313 23.2447 18.0066 23.1154 17.9584 22.9942C19.6922 22.8567 21.1566 22.3438 22.3762 21.5257C23.7787 20.5852 24.7962 19.2845 25.5387 17.8256L29.1688 15.8085C29.6528 15.5403 30.079 15.3025 30.4159 15.0687C30.7803 14.8157 31.1089 14.5215 31.3536 14.1062C31.5984 13.6896 31.6974 13.2592 31.74 12.8178C31.7812 12.4095 31.7812 11.9213 31.7812 11.3686V11.1692C31.7812 10.4982 31.7812 9.90971 31.7262 9.42434C31.6657 8.90046 31.5338 8.39309 31.1969 7.92834C30.8614 7.46221 30.4228 7.17621 29.9456 6.95209C29.5015 6.74584 28.9432 6.56021 28.3066 6.34846L27.6301 6.12296C27.5889 5.26221 27.4005 4.49221 26.8216 3.77859C25.9196 2.66621 24.7646 2.47234 23.3759 2.24134L23.1903 2.20971C21.1441 1.87428 19.0735 1.71009 17 1.71884ZM20.5544 29.2188L20.3344 28.1202C20.3188 28.0423 20.2767 27.9722 20.2153 27.9218C20.1539 27.8714 20.0769 27.8439 19.9975 27.8438H14.0025C13.9231 27.8439 13.8461 27.8714 13.7847 27.9218C13.7233 27.9722 13.6812 28.0423 13.6656 28.1202L13.4456 29.2188H20.5544ZM6.396 8.28859L6.41525 8.28171C6.51425 10.3717 6.74937 12.6817 7.33787 14.8405L5.87213 14.0278C5.33725 13.7295 5.00175 13.5425 4.75975 13.3747C4.537 13.2193 4.46413 13.1272 4.42425 13.0585C4.383 12.9897 4.339 12.8825 4.3115 12.613C4.28235 12.1837 4.27226 11.7534 4.28125 11.3232V11.2228C4.28125 10.4817 4.28262 10.0128 4.3225 9.65809C4.361 9.33084 4.4215 9.20846 4.4765 9.13421C4.53012 9.05859 4.62637 8.96234 4.92475 8.82346C5.24925 8.67221 5.69475 8.52371 6.396 8.28859ZM27.5847 8.28034C27.4871 10.3703 27.2506 12.6803 26.6635 14.8391L28.1279 14.0265C28.6628 13.7281 28.9983 13.5411 29.2402 13.3733C29.463 13.218 29.5359 13.1258 29.5758 13.0571C29.617 12.9883 29.661 12.8811 29.6885 12.6116C29.7174 12.3173 29.7188 11.9337 29.7188 11.3218V11.2215C29.7188 10.4803 29.7174 10.0115 29.6775 9.65671C29.639 9.32946 29.5785 9.20709 29.5235 9.13284C29.4699 9.05721 29.3736 8.96096 29.0752 8.82209C28.7507 8.67084 28.3053 8.52096 27.604 8.28584L27.5847 8.28034ZM11.1535 4.24334C13.0861 3.92714 15.0417 3.7726 17 3.78134C19.3925 3.78134 21.3546 3.99171 22.8465 4.24334C24.5061 4.52384 24.854 4.62834 25.2211 5.07934C25.5814 5.52209 25.6157 5.94284 25.5415 7.80596C25.4177 10.9107 25.008 14.263 23.7402 16.8122C23.1133 18.069 22.2937 19.0975 21.2281 19.8125C20.168 20.5233 18.7999 20.9688 17 20.9688C15.2001 20.9688 13.8334 20.5233 12.7732 19.8125C11.7062 19.0975 10.8868 18.069 10.2611 16.8108C8.992 14.263 8.58362 10.9121 8.45988 7.80459C8.38562 5.94284 8.41862 5.52209 8.78025 5.07934C9.146 4.62834 9.49388 4.52384 11.1535 4.24334Z" fill="#F4890A"/>
</g>
</svg>
