<svg width="53" height="26" viewBox="0 0 53 26" fill="none" xmlns="http://www.w3.org/2000/svg">
<path d="M0.876 25V0.414998H11.238C12.866 0.414998 14.252 0.700998 15.396 1.273C16.562 1.823 17.453 2.615 18.069 3.649C18.707 4.661 19.026 5.893 19.026 7.345C19.026 8.467 18.718 9.523 18.102 10.513C17.508 11.481 16.551 12.284 15.231 12.922V10.843C16.441 11.305 17.398 11.877 18.102 12.559C18.806 13.241 19.301 14 19.587 14.836C19.873 15.672 20.016 16.552 20.016 17.476C20.016 19.83 19.235 21.678 17.673 23.02C16.133 24.34 13.988 25 11.238 25H0.876ZM5.364 21.04H11.7C12.866 21.04 13.79 20.721 14.472 20.083C15.176 19.423 15.528 18.554 15.528 17.476C15.528 16.398 15.176 15.529 14.472 14.869C13.79 14.209 12.866 13.879 11.7 13.879H5.364V21.04ZM5.364 9.952H11.469C12.393 9.952 13.13 9.688 13.68 9.16C14.23 8.61 14.505 7.906 14.505 7.048C14.505 6.19 14.23 5.508 13.68 5.002C13.13 4.496 12.393 4.243 11.469 4.243H5.364V9.952Z" fill="#F4890A"/>
<path d="M33.1304 25.396C31.5684 25.396 30.1164 25.11 28.7744 24.538C27.4544 23.966 26.3104 23.174 25.3424 22.162C24.3964 21.128 23.7034 19.929 23.2634 18.565L26.9924 16.948C27.5864 18.356 28.4444 19.467 29.5664 20.281C30.6884 21.073 31.9534 21.469 33.3614 21.469C34.1534 21.469 34.8354 21.348 35.4074 21.106C36.0014 20.842 36.4524 20.49 36.7604 20.05C37.0904 19.61 37.2554 19.082 37.2554 18.466C37.2554 17.74 37.0354 17.146 36.5954 16.684C36.1774 16.2 35.5394 15.826 34.6814 15.562L29.9624 14.044C28.0484 13.45 26.6074 12.559 25.6394 11.371C24.6714 10.183 24.1874 8.786 24.1874 7.18C24.1874 5.772 24.5284 4.529 25.2104 3.451C25.9144 2.373 26.8824 1.537 28.1144 0.942999C29.3684 0.326999 30.7984 0.018999 32.4044 0.018999C33.8784 0.018999 35.2314 0.282999 36.4634 0.810999C37.6954 1.317 38.7514 2.032 39.6314 2.956C40.5334 3.858 41.2044 4.925 41.6444 6.157L37.9484 7.807C37.4644 6.575 36.7384 5.629 35.7704 4.969C34.8024 4.287 33.6804 3.946 32.4044 3.946C31.6564 3.946 30.9964 4.078 30.4244 4.342C29.8524 4.584 29.4014 4.936 29.0714 5.398C28.7634 5.838 28.6094 6.366 28.6094 6.982C28.6094 7.664 28.8294 8.269 29.2694 8.797C29.7094 9.303 30.3804 9.699 31.2824 9.985L35.8034 11.404C37.7614 12.042 39.2244 12.922 40.1924 14.044C41.1824 15.166 41.6774 16.552 41.6774 18.202C41.6774 19.61 41.3144 20.853 40.5884 21.931C39.8624 23.009 38.8614 23.856 37.5854 24.472C36.3094 25.088 34.8244 25.396 33.1304 25.396Z" fill="white"/>
<path d="M48.0616 25V20.38H52.4176V25H48.0616Z" fill="#F4890A"/>
</svg>
