<svg width="34" height="33" viewBox="0 0 34 33" fill="none" xmlns="http://www.w3.org/2000/svg">
<g id="solar:cart-large-minimalistic-outline">
<path id="Vector" fill-rule="evenodd" clip-rule="evenodd" d="M3.5921 3.15147C3.33391 3.06067 3.05023 3.07615 2.80345 3.1945C2.55668 3.31286 2.36703 3.52441 2.27623 3.78259C2.18542 4.04078 2.2009 4.32447 2.31926 4.57124C2.43762 4.81802 2.64916 5.00767 2.90735 5.09847L3.2676 5.22359C4.18473 5.54672 4.78835 5.75984 5.23248 5.97847C5.6491 6.18334 5.83335 6.34972 5.95435 6.52572C6.0781 6.70722 6.17435 6.95747 6.22935 7.45659C6.28435 7.97909 6.28573 8.65972 6.28573 9.67722V13.42C6.28573 15.4178 6.30498 16.8575 6.49335 17.9575C6.6941 19.1317 7.0956 19.9732 7.84773 20.7652C8.66448 21.6273 9.69848 22.0027 10.9319 22.176C12.1116 22.3437 13.6104 22.3437 15.4597 22.3437H22.893C23.9132 22.3437 24.7712 22.3437 25.4642 22.2585C26.2026 22.1691 26.8736 21.9711 27.4607 21.494C28.0465 21.0155 28.3751 20.3981 28.6116 19.6941C28.8357 19.0313 29.009 18.1912 29.2152 17.1916L29.9137 13.7967L29.9165 13.7898L29.9302 13.7183C30.1571 12.584 30.3469 11.6297 30.395 10.8625C30.4445 10.0567 30.3524 9.26197 29.8271 8.57997C29.504 8.15922 29.0502 7.92134 28.6364 7.77697C28.1892 7.62994 27.7271 7.5331 27.2586 7.48822C26.314 7.38372 25.1659 7.38372 24.0411 7.38372H8.29185C8.28772 7.33418 8.28314 7.28468 8.2781 7.23522C8.20385 6.55184 8.04435 5.92897 7.65523 5.36247C7.26473 4.79047 6.74498 4.42472 6.13998 4.12634C5.57348 3.84859 4.85298 3.59559 4.0046 3.29722L3.5921 3.15147ZM8.3496 9.44622H23.9971C25.1741 9.44622 26.2109 9.44759 27.029 9.53834C27.436 9.58509 27.7399 9.64834 27.953 9.72259C28.04 9.74749 28.1219 9.78752 28.195 9.84084C28.2802 9.95359 28.371 10.1571 28.3352 10.736C28.2981 11.3465 28.1386 12.1605 27.8939 13.3842V13.387L27.2064 16.7145C26.9864 17.7911 26.8351 18.5061 26.6577 19.0355C26.4886 19.5387 26.3291 19.7546 26.1572 19.8948C25.9853 20.0351 25.7406 20.1478 25.2154 20.2111C24.6599 20.2798 23.9297 20.2812 22.8311 20.2812H15.5395C13.5911 20.2812 12.2395 20.2785 11.222 20.1341C10.2375 19.9952 9.7191 19.7422 9.34373 19.3462C8.90373 18.8815 8.66585 18.4277 8.5256 17.6096C8.37435 16.7158 8.34823 15.4673 8.34823 13.42L8.3496 9.44622ZM10.8122 29.9062C9.99171 29.9062 9.2048 29.5803 8.62461 29.0001C8.04442 28.4199 7.71848 27.633 7.71848 26.8125C7.71848 25.992 8.04442 25.205 8.62461 24.6249C9.2048 24.0447 9.99171 23.7187 10.8122 23.7187C11.6327 23.7187 12.4196 24.0447 12.9998 24.6249C13.58 25.205 13.906 25.992 13.906 26.8125C13.906 27.633 13.58 28.4199 12.9998 29.0001C12.4196 29.5803 11.6327 29.9062 10.8122 29.9062ZM9.78098 26.8125C9.78098 27.086 9.88962 27.3483 10.083 27.5417C10.2764 27.7351 10.5387 27.8437 10.8122 27.8437C11.0857 27.8437 11.348 27.7351 11.5414 27.5417C11.7348 27.3483 11.8435 27.086 11.8435 26.8125C11.8435 26.539 11.7348 26.2767 11.5414 26.0833C11.348 25.8899 11.0857 25.7812 10.8122 25.7812C10.5387 25.7812 10.2764 25.8899 10.083 26.0833C9.88962 26.2767 9.78098 26.539 9.78098 26.8125ZM23.1872 29.9062C22.3667 29.9062 21.5798 29.5803 20.9996 29.0001C20.4194 28.4199 20.0935 27.633 20.0935 26.8125C20.0935 25.992 20.4194 25.205 20.9996 24.6249C21.5798 24.0447 22.3667 23.7187 23.1872 23.7187C24.0077 23.7187 24.7946 24.0447 25.3748 24.6249C25.955 25.205 26.281 25.992 26.281 26.8125C26.281 27.633 25.955 28.4199 25.3748 29.0001C24.7946 29.5803 24.0077 29.9062 23.1872 29.9062ZM22.156 26.8125C22.156 27.086 22.2646 27.3483 22.458 27.5417C22.6514 27.7351 22.9137 27.8437 23.1872 27.8437C23.4607 27.8437 23.723 27.7351 23.9164 27.5417C24.1098 27.3483 24.2185 27.086 24.2185 26.8125C24.2185 26.539 24.1098 26.2767 23.9164 26.0833C23.723 25.8899 23.4607 25.7812 23.1872 25.7812C22.9137 25.7812 22.6514 25.8899 22.458 26.0833C22.2646 26.2767 22.156 26.539 22.156 26.8125Z" fill="#F4890A"/>
</g>
</svg>
